<?xml version="1.0" standalone="no"?>
<!DOCTYPE svg PUBLIC "-//W3C//DTD SVG 20010904//EN"
 "http://www.w3.org/TR/2001/REC-SVG-20010904/DTD/svg10.dtd">
<svg version="1.0" xmlns="http://www.w3.org/2000/svg"
 width="619.000000pt" height="545.000000pt" viewBox="0 0 619.000000 545.000000"
 preserveAspectRatio="xMidYMid meet">

<g transform="translate(0.000000,545.000000) scale(0.100000,-0.100000)"
fill="#000000" stroke="none">
<path d="M4107 5274 c-129 -31 -201 -77 -357 -229 -63 -62 -126 -119 -140
-126 -21 -12 -262 -15 -1405 -19 -1363 -5 -1381 -6 -1440 -26 -108 -38 -168
-75 -245 -153 -83 -83 -129 -161 -157 -262 -17 -60 -18 -177 -18 -1909 0
-2002 -2 -1912 55 -2034 64 -136 204 -259 347 -308 l68 -23 2259 -3 c2242 -2
2260 -2 2334 18 40 11 92 30 115 42 111 56 220 169 272 283 57 125 55 26 55
2210 0 1760 -2 2015 -15 2080 -48 232 -216 406 -447 460 -90 21 -1193 21
-1281 -1z m1253 -409 c24 -17 55 -48 67 -70 23 -40 23 -43 23 -457 l0 -418
-2356 0 -2355 0 3 228 c3 223 4 229 27 264 13 19 40 46 59 59 l36 24 1380 5
1381 6 68 22 c108 37 182 87 311 212 121 116 155 143 191 153 11 3 268 4 570
4 l550 -2 45 -30z m90 -2747 l0 -1403 -23 -40 c-12 -21 -42 -53 -65 -70 l-44
-30 -2223 0 -2223 0 -44 30 c-23 17 -53 49 -65 70 l-23 40 0 1403 0 1402 2355
0 2355 0 0 -1402z"/>
<path d="M4690 4691 c-135 -44 -214 -150 -214 -286 0 -251 296 -387 480 -221
75 66 99 122 99 226 0 74 -3 91 -27 131 -30 51 -90 109 -140 135 -37 19 -158
28 -198 15z"/>
<path d="M2955 3314 c-305 -77 -508 -274 -581 -564 -27 -108 -27 -393 0 -500
36 -144 95 -250 198 -356 80 -82 77 -95 -27 -110 -345 -50 -639 -285 -770
-616 -77 -195 -69 -288 31 -364 l37 -29 1253 0 1252 0 39 31 c46 36 83 105 83
154 0 105 -100 339 -198 461 -76 95 -132 147 -235 213 -132 87 -240 128 -392
150 -62 9 -81 16 -83 29 -2 11 25 48 70 96 84 90 144 196 179 316 21 71 24
101 24 270 0 169 -3 200 -23 275 -38 135 -93 231 -192 331 -92 93 -170 143
-291 186 -64 22 -93 26 -214 29 -77 1 -149 0 -160 -2z m290 -418 c59 -30 132
-102 167 -167 22 -42 23 -54 23 -229 0 -181 -1 -186 -27 -235 -32 -63 -112
-139 -175 -167 -38 -17 -67 -22 -138 -22 -79 -1 -97 3 -147 27 -73 36 -147
117 -176 192 -19 49 -22 77 -22 206 0 176 15 229 86 308 82 91 160 124 282
117 53 -3 89 -12 127 -30z m-74 -1286 c6 -73 18 -101 62 -148 43 -45 108 -62
236 -62 124 0 209 -18 299 -62 66 -33 206 -153 196 -169 -7 -11 -1731 -12
-1738 -1 -7 11 87 101 144 139 102 67 201 93 354 93 125 0 190 17 233 62 45
48 63 90 63 151 0 29 3 56 6 59 3 4 36 5 72 5 l67 -2 6 -65z"/>
</g>
</svg>
