<?xml version="1.0" standalone="no"?>
<!DOCTYPE svg PUBLIC "-//W3C//DTD SVG 20010904//EN"
 "http://www.w3.org/TR/2001/REC-SVG-20010904/DTD/svg10.dtd">
<svg version="1.0" xmlns="http://www.w3.org/2000/svg"
 width="655.000000pt" height="636.000000pt" viewBox="0 0 655.000000 636.000000"
 preserveAspectRatio="xMidYMid meet">

<g transform="translate(0.000000,636.000000) scale(0.100000,-0.100000)"
fill="#000000" stroke="none">
<path d="M2891 6149 c-1123 -143 -2058 -889 -2453 -1953 -218 -590 -238 -1291
-53 -1900 113 -372 286 -701 533 -1011 251 -315 577 -585 937 -776 147 -79
167 -88 312 -145 309 -121 616 -186 948 -203 857 -42 1667 270 2276 879 462
461 748 1026 851 1682 19 124 22 182 23 438 0 312 -14 454 -66 678 -128 549
-409 1054 -808 1453 -487 487 -1107 785 -1793 863 -189 22 -519 20 -707 -5z
m-196 -429 c52 -48 55 -124 9 -179 -19 -23 -50 -37 -142 -66 -191 -60 -332
-121 -502 -219 -521 -298 -912 -786 -1099 -1371 -47 -144 -52 -155 -98 -178
-42 -22 -81 -21 -120 3 -78 47 -81 110 -13 310 216 636 654 1161 1245 1489
162 90 414 194 570 234 47 13 125 1 150 -23z m707 -1956 c282 -64 478 -309
478 -599 0 -341 -274 -615 -615 -615 -290 0 -535 196 -599 478 -100 440 296
836 736 736z m-1009 -671 c19 -342 264 -651 607 -765 92 -31 101 -32 265 -33
158 0 176 2 253 27 355 118 595 414 620 766 l7 97 933 3 932 2 0 -68 c0 -385
-110 -834 -292 -1197 -48 -94 -174 -299 -234 -381 -674 -912 -1800 -1314
-2904 -1039 -710 178 -1330 653 -1704 1307 -223 389 -355 876 -356 1306 l0 72
934 0 933 0 6 -97z"/>
</g>
</svg>
